<svg width="116" height="26" viewBox="0 0 116 26" fill="none" xmlns="http://www.w3.org/2000/svg">
<g id="Group">
<path id="Vector" d="M2.46829 5.35146C3.43576 2.83498 4.31983 0.718474 4.41992 0.635147C4.53668 0.568486 4.78689 0.501824 4.98705 0.501824C5.2039 0.501824 5.48747 0.55182 5.62092 0.618482C5.78772 0.701809 6.38822 2.26836 8.37321 8.33457H17.9645L19.1322 4.71818C19.766 2.73499 20.3999 0.985121 20.5 0.818467C20.6334 0.618482 20.917 0.501824 21.2506 0.501824C21.5508 0.485158 21.8845 0.585151 22.0012 0.701809C22.1013 0.818467 22.952 2.90165 23.8694 5.3348C24.8036 7.76795 25.8796 10.5511 25.913 10.6844C25.9297 10.8177 25.1372 10.3678 24.2531 10.6844C23.5025 10.951 22.535 11.3843 22.1013 11.6343C21.6509 11.901 19.5325 13.4509 17.3807 15.0674C15.2289 16.7006 13.3607 18.0672 13.2439 18.1005C13.1438 18.1338 11.1922 16.7673 8.92367 15.0507C6.57171 13.2842 4.23643 11.651 3.53585 11.301C2.85194 10.951 1.86097 10.9333 1.41059 10.8333C0.976896 10.75 0.410492 10.6177 0.410492 10.5011C0.410492 10.4011 1.48414 7.86794 2.46829 5.35146Z" fill="#E24329"/>
<path id="Vector_2" fill-rule="evenodd" clip-rule="evenodd" d="M101.285 3.33484H104.954V7.00123C104.954 9.01775 104.988 10.6676 105.038 10.6676C105.088 10.6676 105.438 10.3177 105.838 9.86769C106.289 9.38439 106.923 8.93442 107.473 8.70111C108.14 8.40113 108.674 8.30114 109.541 8.30114C110.342 8.3178 111.026 8.43446 111.71 8.68444C112.327 8.91776 113.011 9.35106 113.528 9.81769C113.962 10.2343 114.529 10.9176 114.762 11.3342C114.996 11.7509 115.33 12.5342 115.496 13.0841C115.68 13.6341 115.847 14.7173 115.897 15.5006C115.963 16.3839 115.897 17.4171 115.747 18.2504C115.613 18.9837 115.313 20.0169 115.079 20.5502C114.829 21.0669 114.279 21.8835 113.828 22.3501C113.395 22.8167 112.627 23.4 112.127 23.6333C111.326 24.0333 111.009 24.0833 109.541 24.0833C108.24 24.0833 107.74 24.0166 107.29 23.7667C106.973 23.6 106.455 23.2334 106.155 22.9334C105.838 22.6501 105.471 22.2001 105.038 21.4168L104.871 23.9166L101.285 24L101.285 3.33484ZM105.805 12.8175C105.521 13.2341 105.204 13.9507 105.104 14.4173C104.988 14.9006 104.938 15.8839 104.988 16.7505C105.054 17.8671 105.171 18.467 105.471 19.067C105.688 19.517 106.122 20.1003 106.405 20.3669C106.706 20.6169 107.139 20.9169 107.373 21.0002C107.606 21.0835 108.107 21.1668 108.491 21.1668C108.891 21.1668 109.508 21.0169 109.875 20.8502C110.242 20.6835 110.709 20.3669 110.909 20.1503C111.109 19.9336 111.443 19.367 111.643 18.917C111.899 18.3615 112.049 17.6393 112.094 16.7505C112.127 16.0172 112.077 15.0006 111.977 14.5007C111.877 14.0007 111.61 13.2841 111.376 12.9175C111.126 12.5508 110.676 12.0675 110.342 11.8342C109.892 11.5176 109.475 11.4009 108.724 11.3676C107.923 11.3342 107.556 11.4009 107.023 11.6842C106.639 11.8842 106.105 12.4008 105.805 12.8175Z" fill="white"/>
<path id="Vector_3" d="M8.07764 22.0832C8.06096 22.0332 9.37378 21.2002 10.7082 20.1836C12.0427 19.1837 13.2115 18.2665 13.2448 18.2499C13.2615 18.2499 14.2779 19.1337 15.5956 20.1003C16.8959 21.0829 18.0296 21.9324 18.0976 21.9834L18.0977 21.9835C18.1644 22.0335 17.2136 22.8501 15.9626 23.8C14.1111 25.1999 13.6106 25.4999 13.1269 25.4999C12.6432 25.4999 12.1761 25.2166 10.4247 23.8833C9.25701 22.9834 8.07764 22.1499 8.07764 22.0832Z" fill="#FCA326"/>
<path id="Vector_4" d="M0.100003 12.0843C0.166725 11.6343 0.283489 11.0177 0.366892 10.7344L0.517017 10.2011L1.56789 10.5178C2.15171 10.6844 3.1025 11.0677 3.703 11.3677C4.3035 11.6843 6.63878 13.3342 8.92401 15.0508C11.1926 16.7673 13.1442 18.1339 13.2443 18.1005C13.361 18.0672 15.2293 16.7006 17.3811 15.0674C19.5328 13.4509 21.6513 11.901 22.085 11.6343C22.5353 11.3844 23.4615 10.7833 25.6633 10L25.9215 10.6178C26.0383 10.8844 26.1217 11.8177 26.1383 12.7509C26.1383 14.2008 26.0883 14.5341 25.7213 15.3341C25.4711 15.834 25.0708 16.5506 24.8039 16.9006C24.5203 17.2673 22.9524 18.5672 21.301 19.7837C19.6496 21.017 18.1793 22.05 18.0793 22C17.9625 21.95 16.8306 21.0503 13.2109 18.3338L8.12335 22.1336L5.20425 19.9171C3.60292 18.7005 2.05163 17.4506 1.75138 17.1506C1.46781 16.834 1.03411 16.2173 0.817266 15.7507C0.583739 15.3007 0.31685 14.4675 0.200086 13.9175C0.0833223 13.3675 0.0499612 12.5509 0.100003 12.0843Z" fill="#FC6D26"/>
<path id="Vector_5" fill-rule="evenodd" clip-rule="evenodd" d="M55.4962 2.10158C55.7631 2.15158 56.1635 2.30157 56.3803 2.43489C56.5805 2.56821 56.8807 2.86819 57.0475 3.11817C57.1977 3.36815 57.3311 3.80145 57.3311 4.08477C57.3311 4.36808 57.1977 4.80138 57.0475 5.05136C56.8807 5.30134 56.5471 5.63465 56.2969 5.78464C56.03 5.93463 55.563 6.06795 55.246 6.05129C54.9291 6.05129 54.412 5.91796 54.1118 5.76797C53.8282 5.61799 53.4612 5.26801 53.3278 5.00136C53.1943 4.73472 53.0776 4.30142 53.0776 4.03477C53.0776 3.78479 53.2444 3.31816 53.4612 3.00151C53.6781 2.6682 54.0784 2.3349 54.412 2.21824C54.7289 2.10158 55.2294 2.05158 55.4962 2.10158ZM42.402 3.06818C43.2527 3.11817 44.3203 3.30149 45.0709 3.53481C45.7548 3.75146 46.7723 4.23476 47.3061 4.58473C47.8566 4.95137 48.5571 5.55132 48.8741 5.91796C49.191 6.2846 49.6914 7.10121 49.9917 7.75116C50.3086 8.40111 50.5922 9.16772 50.7423 10.001H46.9058L46.5054 9.13439C46.2719 8.61776 45.7882 7.98448 45.3878 7.61784C44.9875 7.28453 44.3203 6.88456 43.9033 6.75124C43.4862 6.60125 42.6689 6.50125 42.0684 6.50125C41.4679 6.50125 40.6172 6.63458 40.1501 6.78457C39.6664 6.95122 38.9658 7.40119 38.4821 7.85115C37.965 8.31779 37.4813 8.9844 37.1977 9.60102C36.9475 10.1343 36.6639 11.0009 36.5638 11.5009C36.4804 12.0008 36.397 13.0174 36.397 13.7507C36.397 14.484 36.5138 15.5506 36.6472 16.1339C36.7807 16.7005 37.0476 17.4671 37.231 17.8337C37.4145 18.2004 37.8482 18.8003 38.1985 19.1836C38.5321 19.5503 39.2327 20.0669 39.7331 20.3002C40.5171 20.6835 40.8674 20.7502 42.1518 20.7502C43.3528 20.7335 43.8199 20.6669 44.4871 20.3669C44.9541 20.1502 45.538 19.7836 45.7882 19.5336C46.0551 19.2836 46.4387 18.7503 46.6556 18.3337C46.8557 17.9171 47.0726 17.2671 47.2394 16.1672L42.4854 16.0839L42.402 13.1674H50.9091V14.884C50.9091 15.8172 50.809 17.0671 50.6756 17.6671C50.5588 18.267 50.2419 19.2003 49.975 19.7503C49.6914 20.3669 49.1243 21.1335 48.5071 21.7668C47.94 22.3167 47.0726 22.9667 46.5722 23.2167C46.0717 23.45 45.2043 23.7666 44.6539 23.9166C44.0867 24.0499 42.9525 24.1666 42.0684 24.1666C41.1677 24.1666 40.0501 24.0499 39.4829 23.9C38.9325 23.75 38.0317 23.4 37.4813 23.1334C36.9308 22.85 36.03 22.1668 35.4629 21.6001C34.8958 21.0335 34.2119 20.1336 33.945 19.5836C33.6614 19.0337 33.2611 18.0171 33.0442 17.3338C32.6939 16.2672 32.6439 15.7339 32.6439 13.6674C32.6439 11.8342 32.7273 10.9843 32.9608 10.1676C33.1276 9.56769 33.4946 8.6011 33.7782 8.00114C34.1285 7.30119 34.7123 6.50125 35.4796 5.71798C36.2969 4.90137 36.9808 4.36808 37.7315 4.0181C38.332 3.73479 39.2994 3.38482 39.8999 3.25149C40.5838 3.10151 41.5013 3.03484 42.402 3.06818ZM70.759 3.33482H74.4287V20.8335H83.603L83.5196 23.9166L70.759 24V3.33482ZM61.251 4.83471H64.9208V8.50111H67.9233V11.3342H64.9208V20.1669L65.3378 20.5835C65.6881 20.9335 65.8882 21.0002 66.6722 20.9502C67.4896 20.9168 67.6063 20.9668 67.673 21.2502C67.7231 21.4335 67.8399 21.9501 67.9233 22.4167C68.0233 22.8667 68.1401 23.3833 68.1735 23.5333C68.2402 23.7833 68.0901 23.8666 67.3061 24.0166C66.7723 24.1166 65.8882 24.1666 65.3378 24.1333C64.7873 24.0833 64.0033 23.9 63.5863 23.7166C63.1693 23.5333 62.6188 23.1667 62.352 22.9C62.0851 22.6334 61.7348 22.1168 61.568 21.7501C61.2844 21.1502 61.251 20.5835 61.251 11.3342H58.9158V8.50111H61.251V4.83471ZM93.4278 8.36778C94.0283 8.41778 94.9791 8.65109 95.5296 8.85108C96.2135 9.10106 96.7806 9.48437 97.3144 10.0343C97.8982 10.6009 98.1818 11.0842 98.3653 11.7009C98.5654 12.4175 98.6155 13.7007 98.6155 24H95.1126L95.1292 21.9168L94.4954 22.6001C94.1451 22.9834 93.5279 23.45 93.1109 23.6666C92.6939 23.8666 91.9099 24.0999 91.3594 24.1833C90.6922 24.2944 90.025 24.2833 89.3578 24.1499C88.8073 24.0499 88.0233 23.8 87.6063 23.5833C87.1893 23.3833 86.6055 22.9167 86.3052 22.5667C86.005 22.2168 85.638 21.5001 85.4879 21.0002C85.3211 20.4169 85.2544 19.7503 85.3044 19.167C85.3544 18.667 85.5379 17.9504 85.7214 17.5838C85.9049 17.2171 86.3219 16.7005 86.6222 16.4338C86.9391 16.1672 87.4895 15.8172 87.8565 15.6506C88.2235 15.4839 88.8573 15.2839 89.2744 15.1839C89.6914 15.1006 90.9591 14.9006 92.1101 14.7506C93.261 14.6007 94.3619 14.384 94.5621 14.2507C94.8457 14.0674 94.9458 13.8507 94.9458 13.3841C94.9458 13.0341 94.8457 12.5675 94.7289 12.3342C94.6288 12.1175 94.2618 11.7509 93.9449 11.5509C93.4945 11.2509 93.1443 11.1676 92.3603 11.1676C91.6764 11.1676 91.1259 11.2842 90.6088 11.5509C90.1751 11.7675 89.7414 12.1342 89.5746 12.4675C89.3911 12.7841 89.1409 13.0008 88.9408 13.0008C88.7573 13.0008 88.0233 12.9174 87.3061 12.8175C86.6055 12.7175 85.9716 12.5841 85.9049 12.5175C85.8215 12.4675 85.9716 12.0175 86.2385 11.5175C86.4887 11.0009 87.0559 10.2843 87.5229 9.88434C87.99 9.4677 88.7739 9.00107 89.2744 8.80108C89.7748 8.61776 90.6755 8.41778 91.2593 8.35112C91.8432 8.30112 92.8106 8.30112 93.4278 8.36778ZM92.5271 17.2671C91.6096 17.4171 90.5755 17.6838 90.2252 17.8504C89.8915 18.0171 89.4912 18.3837 89.3578 18.667C89.2243 18.9503 89.1076 19.3836 89.1076 19.6669C89.1076 19.9836 89.2744 20.3669 89.5746 20.6835C89.8248 20.9502 90.2919 21.2668 90.6088 21.3668C90.9257 21.4668 91.643 21.5001 92.1935 21.4501C92.9107 21.3835 93.3778 21.2168 93.8448 20.8835C94.2118 20.6335 94.6622 20.1502 94.8457 19.8336C95.0792 19.4336 95.196 18.867 95.246 17.9671C95.2794 17.2505 95.246 16.6672 95.1626 16.6838C95.0959 16.6838 94.8457 16.7672 94.6121 16.8505C94.3786 16.9338 93.4445 17.1338 92.5271 17.2671ZM53.4112 8.50111H57.0809L56.9975 23.9166L53.4112 24V8.50111Z" fill="white"/>
</g>
</svg>
