<svg width="128" height="32" viewBox="0 0 128 32" fill="none" xmlns="http://www.w3.org/2000/svg">
<g id="image 6_layerstyle">
<g id="Group">
<g id="Vector">
<path d="M2.17477 17.5586C2.43079 17.3635 2.91845 17.0952 3.25981 16.9854C3.73527 16.8268 4.32046 16.7781 7.72187 16.7659V18.8026C7.72187 19.9369 7.66091 21.0589 7.59996 21.3028C7.52681 21.5589 7.29517 21.998 7.07573 22.2785C6.85628 22.5712 6.4052 22.9737 6.07603 23.1688C5.53961 23.5103 5.39331 23.5347 4.38142 23.5347C3.51583 23.5347 3.16228 23.4859 2.78434 23.2908C2.51613 23.1566 2.11381 22.8517 1.88218 22.62C1.65054 22.3883 1.34575 21.9492 1.21165 21.6443C1.02878 21.254 0.955627 20.8394 0.955627 20.1808C0.955627 19.3758 1.00439 19.1807 1.33356 18.5953C1.54082 18.2294 1.91875 17.7538 2.17477 17.5586Z" fill="#EC1352"/>
<path d="M11.0745 17.2171C11.3427 17.083 11.7207 16.9244 11.9279 16.8756C12.1352 16.8147 12.5984 16.8025 12.9642 16.8268C13.3299 16.8512 13.842 16.961 14.098 17.0708C14.3418 17.1683 14.7807 17.461 15.0489 17.705C15.3293 17.9611 15.6707 18.388 15.817 18.6563C16.0608 19.1319 16.073 19.3149 16.1096 24.2055C16.134 28.7059 16.1218 29.3401 15.9267 29.8767C15.8048 30.267 15.5244 30.6939 15.1708 31.0475C14.7807 31.4256 14.4028 31.6695 13.9395 31.8281C13.464 31.9744 13.0373 32.0232 12.4765 31.9866C12.0376 31.9623 11.4646 31.8281 11.1964 31.7061C10.9282 31.572 10.5381 31.2793 10.3186 31.0597C10.0992 30.8524 9.79441 30.4377 9.64812 30.145C9.36846 29.6463 9.36772 29.5479 9.33143 24.7319L9.33114 24.6934C9.30676 20.632 9.33114 19.6442 9.47744 19.1441C9.57497 18.8026 9.86756 18.2904 10.1236 17.9977C10.3796 17.705 10.8063 17.3513 11.0745 17.2171Z" fill="#EC1352"/>
</g>
<path id="Vector_2" d="M19.6695 0.301092C19.8402 0.215719 20.1937 0.105954 20.4619 0.0571694C20.7301 -0.00381129 21.1934 -0.0160074 21.4982 0.020581C21.803 0.0571694 22.2419 0.166935 22.4735 0.264504C22.7052 0.362073 23.0953 0.593799 23.3269 0.788937C23.5586 0.971879 23.9243 1.42314 24.4851 2.43542V12.8021L24.1194 13.4607C23.9243 13.8144 23.5586 14.2657 23.3269 14.4486C23.0953 14.6437 22.693 14.8877 22.4491 14.9852C22.1687 15.1072 21.6323 15.1804 21.1325 15.1804C20.6326 15.1804 20.0962 15.1072 19.828 14.9852C19.572 14.8877 19.1696 14.6437 18.938 14.4486C18.7064 14.2657 18.3406 13.8144 17.7798 12.8021V2.43542L18.1456 1.77682C18.3406 1.42314 18.7064 0.971879 18.938 0.788937C19.1696 0.605995 19.4988 0.386465 19.6695 0.301092Z" fill="#2EB67D"/>
<path id="Vector_3" d="M108.179 27.1326V13.8388V0.545044H113.665L113.726 16.0463L116.652 12.546C118.262 10.6312 119.639 9.00916 119.7 8.94818C119.761 8.8872 121.309 8.85061 126.43 8.89939L122.663 13.2534C119.359 17.0952 118.932 17.644 119.054 17.827C119.139 17.9489 119.737 18.6441 120.371 19.3881C121.017 20.132 122.785 22.1688 127.076 27.1326H120.066L113.726 19.3027L113.665 27.1326H108.179Z" fill="white"/>
<path id="Vector_4" d="M17.7433 27.4168L17.7433 27.413L17.6945 25.1812H19.6329C21.0715 25.1812 21.7299 25.2299 22.2297 25.3763C22.7295 25.5348 23.0587 25.7422 23.522 26.2056C23.9609 26.6447 24.2047 27.0228 24.3632 27.4984C24.5095 27.9619 24.5583 28.3887 24.5217 28.901C24.4851 29.3888 24.351 29.8523 24.1072 30.2913C23.9121 30.645 23.5586 31.0963 23.3269 31.2914C23.0953 31.4744 22.6564 31.7183 22.3516 31.8158C22.0468 31.9256 21.4738 32.011 21.0715 31.9988C20.6692 31.9988 20.1693 31.9256 19.9499 31.8524C19.7426 31.7671 19.3281 31.5353 19.0355 31.328C18.7186 31.1085 18.365 30.6938 18.1456 30.2913C17.78 29.6331 17.7798 29.6206 17.7433 27.4168Z" fill="#ECB22E"/>
<g id="Vector_5">
<path d="M10.8917 0.52065C11.1964 0.325512 11.6841 0.130374 11.9889 0.0693934C12.2937 0.00841277 12.7813 -0.0159795 13.0861 0.0206089C13.3909 0.0571973 13.9151 0.203551 14.2443 0.362101C14.5735 0.52065 15.0611 0.886534 15.3171 1.16705C15.561 1.45975 15.8536 1.9476 15.9511 2.2525C16.0852 2.65497 16.134 3.35015 16.134 6.88703L14.037 6.86264C12.0377 6.82605 11.8914 6.81385 11.2574 6.49676C10.8917 6.32601 10.4284 5.99671 10.2333 5.76499C10.0383 5.54546 9.77005 5.14298 9.63594 4.87467C9.50183 4.60635 9.36773 4.08192 9.34335 3.71604C9.30677 3.35015 9.34335 2.82572 9.4043 2.5574C9.47745 2.28909 9.72128 1.80124 9.94073 1.45975C10.1602 1.13046 10.5869 0.703592 10.8917 0.52065Z" fill="#36C5F0"/>
<path d="M2.38204 8.99696C2.66244 8.80182 3.1501 8.59449 3.45489 8.50912C3.84501 8.39935 5.35675 8.36276 8.75816 8.38716L8.7806 8.38727C13.4399 8.41155 13.526 8.412 14.1224 8.69206C14.4516 8.85061 14.8904 9.11892 15.0733 9.30187C15.2684 9.48481 15.561 9.87508 15.7438 10.18C15.9633 10.5703 16.073 10.9605 16.1096 11.5216C16.1462 12.0582 16.0974 12.5094 15.9755 12.9241C15.8658 13.2656 15.5854 13.7535 15.3659 14.0218C15.1465 14.2901 14.6588 14.656 13.6347 15.1804H8.5509C4.18637 15.1804 3.39393 15.156 3.0038 14.9853C2.74778 14.8877 2.34547 14.6438 2.11383 14.4486C1.88219 14.2657 1.54083 13.851 1.35796 13.5217C1.15071 13.1558 0.992217 12.6436 0.943451 12.1923C0.906877 11.7777 0.919069 11.2532 1.00441 10.9727C1.07756 10.7044 1.297 10.2288 1.50426 9.91167C1.69932 9.58238 2.10164 9.1799 2.38204 8.99696Z" fill="#36C5F0"/>
</g>
<path id="Vector_6" d="M27.6061 8.9847C27.8987 8.80175 28.3863 8.58222 28.6911 8.50905C28.9959 8.42367 29.5079 8.38709 29.8493 8.42367C30.1785 8.44807 30.7271 8.60662 31.0684 8.76517C31.3976 8.92372 31.8365 9.24081 32.0316 9.47254C32.2266 9.69207 32.4948 10.0945 32.6411 10.3629C32.8362 10.7409 32.8972 11.0702 32.8972 11.8264C32.8972 12.5948 32.8362 12.9118 32.6168 13.3143C32.4705 13.607 32.1657 14.0217 31.9462 14.229C31.7268 14.4486 31.2879 14.7535 30.9709 14.8998C30.4467 15.1559 30.2272 15.1803 26.1309 15.1803V13.1924C26.1309 11.7044 26.1675 11.0824 26.3138 10.6678C26.4235 10.3629 26.643 9.93599 26.7893 9.71646C26.9477 9.49693 27.3135 9.16764 27.6061 8.9847Z" fill="#2EB67D"/>
<path id="Vector_7" fill-rule="evenodd" clip-rule="evenodd" d="M58.9259 0.545044H64.4121V27.1326H58.9259V0.545044ZM49.6604 8.52131C51.0746 8.5579 51.7939 8.63108 52.5254 8.82622C53.0618 8.97257 53.9884 9.32626 54.598 9.61897C55.2075 9.91167 55.7805 10.2532 55.8903 10.3873C56.0853 10.5947 56.0487 10.7288 54.6589 14.2657L53.3422 13.6315C52.5986 13.2656 51.5989 12.8875 51.0015 12.7412C50.4285 12.607 49.5507 12.4973 49.0509 12.4973C48.4413 12.4973 47.978 12.5704 47.6489 12.7168C47.3806 12.8387 47.0637 13.0705 46.9418 13.2412C46.832 13.3998 46.7345 13.6925 46.7345 13.8998C46.7345 14.0949 46.8442 14.3877 46.9783 14.534C47.1124 14.6926 47.4416 14.9243 47.7098 15.0584C47.978 15.1926 48.8192 15.4731 49.5751 15.6804C50.3188 15.8756 51.3794 16.1927 51.9159 16.3634C52.4523 16.5342 53.2447 16.8513 53.6836 17.0708C54.1225 17.2903 54.6955 17.644 54.9637 17.8636C55.2319 18.0831 55.6342 18.4856 55.8537 18.7661C56.0731 19.0344 56.3535 19.6198 56.4876 20.0589C56.6217 20.4979 56.7315 21.1809 56.7315 21.5834C56.7315 21.9858 56.6705 22.5591 56.5974 22.864C56.5242 23.1689 56.317 23.7177 56.1463 24.0836C55.9634 24.4495 55.5123 25.0471 55.1466 25.4252C54.7808 25.8032 54.2322 26.2545 53.9274 26.4252C53.6227 26.596 52.9399 26.9009 52.4035 27.0838C51.5989 27.3521 51.1478 27.4253 49.8433 27.4741C48.929 27.5107 47.8195 27.4741 47.2222 27.3887C46.6492 27.3034 45.747 27.1204 45.2106 26.9863C44.6741 26.8399 43.8817 26.5838 43.4428 26.4008C43.0039 26.2179 42.3334 25.8764 41.2484 25.1812L41.9311 23.6201C42.309 22.7664 42.6626 21.9493 42.7235 21.7907C42.8332 21.5224 42.8332 21.5224 43.7232 22.0468C44.1987 22.3273 45.0399 22.7054 45.5763 22.8884C46.1127 23.0591 46.9783 23.2664 47.5026 23.3396C48.0146 23.4128 48.6851 23.4738 48.9899 23.4738C49.2947 23.4738 49.8311 23.4128 50.1847 23.3274C50.5382 23.2542 50.9771 23.0469 51.1844 22.864C51.3794 22.681 51.5989 22.3761 51.6476 22.181C51.7086 21.9493 51.6842 21.7053 51.5867 21.4858C51.4892 21.2541 51.2087 21.0345 50.8186 20.8394C50.4895 20.6809 49.4654 20.376 48.5632 20.1808C47.661 19.9735 46.4175 19.6442 45.8201 19.449C45.2228 19.2539 44.3937 18.8758 43.9914 18.6197C43.5891 18.3636 43.0771 17.9367 42.8576 17.6684C42.6382 17.4123 42.3578 16.9732 42.2237 16.7049C42.0896 16.4366 41.9189 15.839 41.8335 15.3633C41.736 14.7291 41.736 14.2901 41.8335 13.6559C41.9067 13.1802 42.1505 12.4485 42.37 12.0094C42.5894 11.5703 43.0649 10.924 43.4428 10.5459C43.8817 10.0946 44.4669 9.69214 45.1496 9.35065C45.7226 9.07014 46.5394 8.75304 46.9783 8.65547C47.5513 8.52131 48.295 8.48473 49.6604 8.52131ZM75.0186 8.48473C75.7135 8.47253 76.4694 8.54571 76.9083 8.65547C77.3106 8.76524 77.9811 9.00916 78.4078 9.2043C78.8223 9.41163 79.4197 9.8141 79.7489 10.119C80.0659 10.4117 80.3585 10.6556 80.4194 10.6678C80.4682 10.6678 80.5048 10.2532 80.5048 8.83841H85.9909V27.1326H80.5048V26.2179C80.5048 25.7179 80.4682 25.3032 80.4194 25.3032C80.3585 25.3154 80.0781 25.5471 79.7733 25.8398C79.4685 26.1203 78.9199 26.5106 78.5541 26.7057C78.1884 26.8887 77.4691 27.1448 76.9692 27.2668C76.4572 27.4009 75.6282 27.4985 75.0796 27.4985C74.4944 27.4985 73.7141 27.4009 73.1289 27.2546C72.5925 27.1082 71.7757 26.7911 71.3124 26.5472C70.8491 26.3033 70.1177 25.7666 69.6788 25.3642C69.2399 24.9617 68.6547 24.3031 68.3621 23.9006C68.0817 23.4982 67.6794 22.803 67.4721 22.3395C67.2649 21.8883 66.9723 21.0467 66.826 20.4491C66.6309 19.632 66.57 19.0344 66.57 17.8636C66.5821 16.7171 66.6431 16.0951 66.8382 15.3633C66.9845 14.8267 67.338 13.8876 67.6306 13.29C68.0329 12.4485 68.3865 11.9484 69.118 11.1679C69.6544 10.619 70.4103 9.94826 70.8126 9.69214C71.2149 9.44822 71.9586 9.09453 72.4584 8.92379C72.9583 8.75304 73.4825 8.58229 73.6166 8.5579C73.7507 8.52131 74.3847 8.49692 75.0186 8.48473ZM73.7385 14.2169C73.4703 14.3877 73.0436 14.7657 72.7998 15.0706C72.5559 15.3633 72.2268 15.8756 72.0683 16.2171C71.8488 16.7171 71.7879 17.0464 71.7879 17.9855C71.7879 19.0222 71.8245 19.2173 72.1414 19.8759C72.3487 20.2784 72.751 20.8516 73.0558 21.1687C73.3728 21.4736 73.9214 21.8639 74.2871 22.0468C74.726 22.2664 75.2502 22.4127 75.8111 22.4615C76.3353 22.4981 76.9205 22.4737 77.335 22.3761C77.7007 22.2907 78.3347 22.0468 78.7248 21.8395C79.1271 21.6322 79.6879 21.2053 79.9805 20.876L80.5048 20.3028L80.5169 15.8512C79.944 15.0462 79.5173 14.6438 79.2003 14.4242C78.8711 14.2169 78.3713 13.9242 78.0665 13.8022C77.7129 13.6437 77.1521 13.5461 76.4816 13.5095C75.7013 13.4729 75.2868 13.5217 74.8357 13.6803C74.4944 13.8022 73.9945 14.0462 73.7385 14.2169ZM98.0604 8.52131C99.4868 8.5579 99.8526 8.60669 100.743 8.91159C101.316 9.10673 102.157 9.497 102.632 9.77752C103.108 10.058 103.815 10.5703 104.205 10.9361C104.595 11.2898 105.156 11.9118 105.448 12.3143C105.729 12.7168 105.985 13.1193 106.009 13.2046C106.034 13.3022 105.217 13.8388 101.779 15.7658L101.547 15.4487C101.413 15.2658 101.084 14.9121 100.816 14.656C100.535 14.3998 100.011 14.0462 99.6453 13.8632C99.0723 13.5827 98.8163 13.5461 97.8166 13.5339C96.8047 13.5339 96.5731 13.5705 95.9635 13.8632C95.5734 14.0584 95.0004 14.4486 94.6834 14.7413C94.3542 15.034 93.9275 15.5951 93.7325 15.9853C93.3911 16.6561 93.3667 16.8025 93.3667 17.9855C93.3667 19.1685 93.3911 19.3149 93.7325 19.9857C93.9275 20.376 94.3542 20.937 94.6834 21.2297C95.0004 21.5224 95.5734 21.9127 95.9635 22.0956C96.4024 22.3029 96.951 22.4371 97.4508 22.4737C97.9873 22.5103 98.4749 22.4615 98.9748 22.3151C99.3771 22.2054 99.9989 21.9005 100.365 21.6565C100.73 21.4126 101.194 20.9858 101.779 20.1808L102.388 20.5345C102.73 20.7296 103.656 21.2541 104.461 21.7053C105.266 22.1444 105.96 22.5469 106.009 22.5956C106.058 22.6444 105.96 22.9006 105.778 23.1689C105.595 23.4372 105.253 23.9006 105.022 24.1933C104.778 24.4982 104.168 25.0593 103.668 25.4617C103.169 25.852 102.376 26.3643 101.901 26.596C101.425 26.8155 100.56 27.1204 99.9501 27.2668C99.0357 27.4863 98.609 27.5107 97.3899 27.4619C96.3658 27.4253 95.6709 27.3277 95.0735 27.1326C94.598 26.9863 93.7812 26.6326 93.2448 26.3643C92.4889 25.974 92.0135 25.5959 91.1113 24.6934C90.4773 24.0592 89.7702 23.2298 89.5508 22.864C89.3435 22.4981 89.0022 21.7297 88.7949 21.1565C88.5999 20.5833 88.3804 19.6564 88.3073 19.0832C88.1975 18.327 88.1975 17.766 88.2951 17.0098C88.3682 16.4366 88.5145 15.6682 88.6242 15.3024C88.734 14.9365 88.9412 14.3511 89.0875 14.0218C89.2338 13.6803 89.5874 13.0827 89.8556 12.6802C90.1238 12.2777 90.6724 11.6191 91.0625 11.2289C91.4649 10.8264 92.1354 10.2776 92.5743 9.98485C93.0132 9.70434 93.6715 9.35065 94.0372 9.2043C94.403 9.05794 95.0857 8.82622 95.5612 8.70426C96.2561 8.50912 96.7194 8.48473 98.0604 8.52131Z" fill="white"/>
<path id="Vector_8" d="M19.4866 17.2172C19.7548 17.083 20.145 16.9244 20.34 16.8757C20.5351 16.8269 22.9002 16.7903 30.4589 16.8269L31.0685 17.144C31.3977 17.3147 31.8853 17.705 32.1413 17.9977C32.4217 18.327 32.6778 18.8026 32.7997 19.2051C32.9216 19.6198 32.9704 20.132 32.9338 20.5467C32.8972 20.9614 32.7387 21.4614 32.5193 21.8761C32.3242 22.2298 31.9463 22.7054 31.6781 22.9127C31.4099 23.1201 30.9953 23.3518 30.7637 23.4372C30.4589 23.5469 28.935 23.5835 20.2181 23.5957L19.5598 23.2664C19.194 23.0713 18.7673 22.7542 18.5967 22.5591C18.4382 22.3639 18.1822 21.9736 18.048 21.7053C17.9139 21.437 17.7798 20.8882 17.7433 20.4857C17.7067 19.9979 17.7555 19.5466 17.8774 19.1441C17.9871 18.8148 18.2797 18.2904 18.5357 17.9977C18.7917 17.705 19.2184 17.3513 19.4866 17.2172Z" fill="#ECB22E"/>
</g>
</g>
</svg>
