<svg width="106" height="32" viewBox="0 0 106 32" fill="none" xmlns="http://www.w3.org/2000/svg">
<g id="image 3_layerstyle">
<g id="Group">
<path id="Vector" d="M91.0897 0.0104133L92.8468 0.00485953L92.844 0.00208266C93.8101 -0.000694218 94.6373 -0.000694218 94.6845 0.00208266C94.7289 0.00485953 94.7705 0.0131901 94.7733 0.015967C94.7761 0.0215208 94.7872 1.95422 94.7955 4.31457C94.8038 6.67491 94.8177 8.81033 94.8233 9.06302C94.8288 9.31572 94.8344 10.2515 94.8371 12.7701L95.3701 12.7507C95.7449 12.7396 95.9975 12.7146 96.2112 12.673C96.3806 12.6396 96.6359 12.5758 96.7803 12.5286C96.9246 12.4814 97.18 12.3814 97.3493 12.3009C97.5187 12.2203 97.7685 12.0843 97.9045 11.9954C98.0405 11.9065 98.2404 11.7594 98.3487 11.6705C98.4542 11.5844 98.6429 11.4067 98.7678 11.279C98.89 11.154 99.0427 10.9846 99.1037 10.9096C99.1648 10.8319 99.2842 10.6653 99.3702 10.5348C99.4535 10.4043 99.584 10.1738 99.6617 10.021C99.7366 9.86831 99.8393 9.63228 99.8865 9.49344C99.9365 9.35459 100 9.14355 100.031 9.02137C100.061 8.89919 100.106 8.67981 100.125 8.53542C100.147 8.39102 100.167 8.17442 100.172 8.05224C100.178 7.93283 100.186 7.82454 100.195 7.81343C100.203 7.80232 101.036 7.78566 103.887 7.75789V7.87452C103.887 7.94116 103.873 8.16887 103.859 8.38269C103.842 8.59651 103.803 8.92695 103.773 9.11856C103.742 9.31016 103.681 9.62117 103.634 9.81278C103.587 10.0044 103.492 10.3237 103.423 10.5209C103.354 10.718 103.223 11.0457 103.132 11.2429C103.043 11.44 102.898 11.7288 102.812 11.8815C102.724 12.0343 102.56 12.3036 102.443 12.4786C102.327 12.6535 102.127 12.9284 101.996 13.0895C101.869 13.2478 101.633 13.5143 101.472 13.681C101.311 13.8476 101.061 14.0892 100.916 14.2141C100.772 14.3391 100.528 14.5335 100.375 14.6473C100.222 14.7612 99.9892 14.9222 99.856 15.0055C99.7228 15.0888 99.6117 15.1638 99.6117 15.1721C99.6117 15.1805 100.989 17.1409 102.676 19.5318C104.361 21.9227 105.741 23.8804 105.738 23.8804C105.735 23.8832 104.764 23.8943 101.43 23.9249L98.89 20.4843C97.4937 18.5933 96.2917 16.9549 96.2195 16.8438C96.1446 16.7355 96.0336 16.605 95.9669 16.5578C95.9031 16.5134 95.7726 16.4495 95.6755 16.419C95.5811 16.3912 95.4145 16.3634 95.3007 16.3634C95.1925 16.3606 95.0453 16.3606 94.851 16.3662L94.8927 23.9471L93.2882 23.9498C92.4082 23.9498 91.5782 23.9526 91.2007 23.9609L91.1979 23.1973C91.1979 22.778 91.1924 22.2726 91.1868 22.0727C91.184 21.8727 91.1702 19.3819 91.1618 16.5328C91.1507 13.6837 91.1396 10.8985 91.1313 10.3404C91.123 9.78223 91.1119 7.23028 91.0897 0.0104133Z" fill="white"/>
<path id="Vector_2" fill-rule="evenodd" clip-rule="evenodd" d="M16.7035 5.32813L16.9034 5.93904C17.0144 6.27504 17.1865 6.78043 17.292 7.06367C17.3947 7.34691 17.5946 7.86619 17.7362 8.21607C17.8777 8.56596 18.0915 9.07413 18.2081 9.34071C18.3274 9.60729 18.5551 10.1016 18.7133 10.4376C18.8743 10.7736 19.0936 11.2179 19.2019 11.4234C19.3073 11.6289 19.51 12.0037 19.646 12.2564C19.7848 12.5091 20.0013 12.8951 20.1318 13.1173C20.2623 13.3394 20.4954 13.7282 20.6537 13.9864C20.8119 14.2419 20.9479 14.4474 20.9535 14.4418C20.9618 14.439 21.0229 14.2502 21.095 14.0197C21.1672 13.7893 21.2921 13.4338 21.3726 13.2283C21.4531 13.0228 21.5891 12.7091 21.6724 12.5341C21.7529 12.3592 21.9056 12.0648 22.0111 11.8815C22.1138 11.6983 22.3081 11.3845 22.4413 11.1873C22.5774 10.9902 22.8161 10.6708 22.9771 10.4792C23.1353 10.2876 23.4101 9.99327 23.5822 9.82666C23.7571 9.66005 24.0042 9.43512 24.1347 9.33238C24.2651 9.22686 24.5399 9.0297 24.7454 8.89085C24.9508 8.75479 25.3144 8.54652 25.5504 8.42712C25.7863 8.31049 26.1444 8.15221 26.3415 8.08001C26.5414 8.00781 26.8662 7.90506 27.0632 7.85508C27.2631 7.8051 27.5796 7.73567 27.7711 7.70513C27.9626 7.67458 28.2874 7.63293 28.4928 7.61627C28.7205 7.59683 29.0924 7.59128 29.4367 7.59961C29.7781 7.61072 30.1501 7.63848 30.3666 7.67181C30.5664 7.69958 30.8774 7.75789 31.0606 7.79954C31.2438 7.8412 31.5741 7.93283 31.7962 8.00781C32.0183 8.08001 32.3486 8.20497 32.5318 8.28272C32.715 8.36325 33.0148 8.51042 33.198 8.61039C33.3812 8.71036 33.6366 8.86309 33.7671 8.94639C33.8975 9.0297 34.103 9.1741 34.2251 9.26573C34.3472 9.36015 34.5582 9.53231 34.697 9.64894C34.8358 9.76835 35.0607 9.97939 35.1994 10.1238C35.3382 10.2654 35.5326 10.4764 35.6297 10.5903C35.7296 10.7042 35.9045 10.9291 36.0211 11.0901C36.1377 11.2512 36.3154 11.5206 36.4181 11.6872C36.518 11.8538 36.679 12.1565 36.7762 12.3536C36.8733 12.5508 37.0149 12.884 37.0926 13.0895C37.1703 13.295 37.2703 13.6032 37.3175 13.7698C37.3647 13.9364 37.4313 14.2308 37.4701 14.4224C37.5062 14.614 37.5534 14.9 37.5756 15.0611C37.5978 15.2416 37.6117 15.6303 37.6089 16.0885C37.6089 16.6244 37.5951 16.9188 37.559 17.1715C37.534 17.3631 37.4813 17.6741 37.4396 17.8657C37.4007 18.0573 37.323 18.3739 37.262 18.5738C37.2037 18.7737 37.0871 19.1097 37.001 19.3236C36.915 19.5374 36.754 19.8873 36.6457 20.1011C36.5347 20.3149 36.3265 20.6704 36.1766 20.8925C36.0294 21.1147 35.824 21.4007 35.7213 21.5312C35.6158 21.6617 35.3688 21.9338 35.1689 22.1365C34.9718 22.342 34.6859 22.6114 34.536 22.7336C34.3861 22.8585 34.1224 23.0585 33.9531 23.1779C33.781 23.2973 33.4867 23.4861 33.2952 23.5944C33.1036 23.7027 32.8038 23.8554 32.629 23.936C32.4541 24.0137 32.1404 24.1359 31.935 24.2081C31.7296 24.2803 31.3853 24.383 31.1716 24.4358C30.9579 24.4886 30.6081 24.558 30.3943 24.5913C30.0557 24.6441 29.8947 24.6524 29.1313 24.6524C28.4595 24.6524 28.1736 24.6413 27.896 24.6052C27.6989 24.5774 27.3908 24.5302 27.2159 24.4997C27.041 24.4691 26.7218 24.3969 26.5081 24.3442C26.2943 24.2914 25.9584 24.1914 25.7586 24.122C25.5615 24.0554 25.2506 23.936 25.0729 23.861C24.8925 23.786 24.5621 23.6305 24.3373 23.5194C24.1097 23.4056 23.821 23.2501 23.6905 23.1751C23.56 23.0973 23.4462 23.0446 23.4379 23.0529C23.4296 23.064 23.0104 25.0523 22.5107 27.4737C22.0111 29.8951 21.5891 31.9028 21.5531 32H19.4017C18.2192 32 17.2504 31.9944 17.2504 31.9861C17.2504 31.9778 17.825 29.2259 18.5245 25.8687C19.2241 22.5142 19.8042 19.7429 19.807 19.7096C19.8153 19.6707 19.721 19.5152 19.5239 19.2375C19.3601 19.0098 19.0603 18.5683 18.8521 18.2545C18.6467 17.9407 18.3608 17.4908 18.2164 17.2548C18.0721 17.0188 17.8278 16.605 17.6751 16.3384C17.5224 16.0718 17.3115 15.6914 17.2032 15.4915C17.0949 15.2915 16.9561 15.0277 16.8923 14.9028C16.8312 14.775 16.7729 14.6723 16.7646 14.6723C16.7563 14.6723 16.7507 15.2138 16.7535 15.8747C16.7563 16.6078 16.7424 17.1937 16.723 17.3798C16.7063 17.5464 16.6674 17.8296 16.6369 18.0046C16.6064 18.1795 16.5453 18.4683 16.5009 18.6432C16.4565 18.8182 16.3621 19.132 16.2899 19.3375C16.2177 19.5429 16.0901 19.8678 16.004 20.0594C15.9179 20.251 15.7681 20.5454 15.6709 20.712C15.5737 20.8786 15.4127 21.1369 15.3128 21.2813C15.2156 21.4257 15.038 21.6645 14.9242 21.8089C14.8076 21.9533 14.5328 22.2532 14.3107 22.4781C14.0886 22.7002 13.7999 22.9668 13.6695 23.0696C13.539 23.1723 13.2892 23.3528 13.1143 23.4722C12.9394 23.5888 12.6646 23.761 12.5036 23.8499C12.3426 23.9415 12.0678 24.0804 11.8929 24.1581C11.718 24.2359 11.4126 24.358 11.2128 24.4275C11.0157 24.4941 10.6965 24.5913 10.5049 24.6385C10.3134 24.6857 9.9886 24.7496 9.78318 24.7801C9.57776 24.8134 9.24743 24.8468 9.04756 24.8607C8.85047 24.8718 8.51736 24.8773 8.31195 24.8718C8.10653 24.8662 7.78175 24.844 7.59021 24.8218C7.39867 24.7996 7.08222 24.7496 6.88235 24.7079C6.68526 24.6691 6.36048 24.5857 6.16061 24.5247C5.96352 24.4636 5.67483 24.3636 5.52215 24.3025C5.36948 24.2442 5.09466 24.1192 4.91145 24.0304C4.72824 23.9415 4.42289 23.7693 4.23135 23.6499C4.03981 23.5305 3.77888 23.3528 3.64841 23.2556C3.51794 23.1557 3.28754 22.9696 3.13764 22.8391C2.98774 22.7086 2.75179 22.4809 2.61299 22.3365C2.47697 22.1921 2.26878 21.9533 2.15219 21.8089C2.0356 21.6645 1.83019 21.384 1.69972 21.1841C1.56925 20.9841 1.37771 20.6676 1.27778 20.476C1.17785 20.2844 1.04183 19.9983 0.975205 19.8373C0.908583 19.6762 0.800322 19.3902 0.739252 19.1986C0.675406 19.007 0.594905 18.7265 0.556042 18.5738C0.517179 18.4211 0.461661 18.1462 0.431126 17.9629C0.400591 17.7796 0.361728 17.4797 0.347848 17.2965C0.331193 17.1132 0.311761 16.1135 0.303434 15.075C0.297882 14.0364 0.284002 11.4345 0.261795 5.39755L2.19938 5.39477C3.26256 5.39199 4.20637 5.38922 4.2952 5.38644C4.3868 5.38644 4.46175 5.38922 4.4673 5.39755C4.47286 5.40588 4.48396 6.21117 4.49229 7.18863C4.50062 8.16609 4.5145 10.7097 4.5256 12.8396C4.53393 14.9694 4.55058 16.8188 4.56446 16.9493C4.57834 17.0799 4.61165 17.2798 4.63386 17.3936C4.65884 17.5075 4.71436 17.7102 4.75878 17.8463C4.80597 17.9796 4.89202 18.1906 4.95587 18.3183C5.01971 18.4433 5.1363 18.646 5.2168 18.7682C5.30008 18.8904 5.43887 19.0709 5.5277 19.1708C5.61653 19.2708 5.77754 19.4319 5.88302 19.5291C5.99128 19.629 6.1967 19.7845 6.34105 19.8817C6.48539 19.9761 6.71024 20.1039 6.84071 20.165C6.97118 20.2233 7.15717 20.301 7.2571 20.3316C7.35703 20.3649 7.51248 20.4093 7.60409 20.4315C7.69569 20.4538 7.86502 20.4871 7.97884 20.5037C8.09265 20.5204 8.35636 20.5343 8.56178 20.5343C8.7783 20.5343 9.04201 20.5148 9.18636 20.4899C9.32515 20.4649 9.53057 20.4204 9.64438 20.3871C9.7582 20.3566 9.95806 20.2844 10.0885 20.2288C10.219 20.1733 10.4189 20.0761 10.5327 20.0095C10.6465 19.9456 10.8297 19.8262 10.9352 19.7484C11.0434 19.6679 11.2433 19.4902 11.3793 19.3513C11.5181 19.2125 11.7013 18.9987 11.7874 18.8793C11.8734 18.7571 12.0011 18.5516 12.0678 18.4211C12.1372 18.2906 12.2371 18.0656 12.2898 17.9212C12.3426 17.7769 12.4175 17.5269 12.5175 17.0743V14.5057C12.5175 13.0923 12.5119 10.457 12.4897 5.35589L14.2663 5.34201C15.2434 5.33368 16.1928 5.32812 16.7035 5.32812V5.32813ZM28.4373 11.9093C28.3069 11.9371 28.0959 11.9954 27.9654 12.0398C27.8349 12.0843 27.6434 12.162 27.5352 12.2148C27.4297 12.2675 27.2409 12.3731 27.1188 12.4536C26.9883 12.5397 26.7579 12.7396 26.5608 12.934C26.3276 13.1672 26.1666 13.3616 26.0251 13.5754C25.9112 13.7421 25.7308 14.0697 25.617 14.2974C25.506 14.5279 25.3588 14.875 25.2922 15.075C25.2228 15.2749 25.1173 15.6359 25.0563 15.8802C24.9952 16.1246 24.9286 16.4245 24.9119 16.5467C24.8925 16.6689 24.7925 17.1298 24.6871 17.5741C24.5788 18.0184 24.4872 18.4016 24.4816 18.4294C24.4705 18.4627 24.5261 18.5238 24.6676 18.6377C24.7787 18.7238 25.0563 18.9209 25.2867 19.0737C25.5226 19.2319 25.9001 19.4513 26.1611 19.579C26.4137 19.704 26.744 19.8512 26.8967 19.9067C27.0494 19.965 27.3186 20.0511 27.4935 20.1011C27.6684 20.1511 27.9765 20.2205 28.1736 20.2566C28.4706 20.3094 28.6372 20.3205 29.1174 20.3232C29.631 20.3232 29.7337 20.3149 29.9918 20.2566C30.1528 20.2205 30.3888 20.1539 30.5193 20.1094C30.6497 20.0622 30.8857 19.9595 31.0467 19.8789C31.2077 19.7956 31.452 19.6512 31.588 19.554C31.7268 19.4569 31.9822 19.2347 32.157 19.0598C32.3319 18.8848 32.5568 18.6238 32.6567 18.4822C32.7566 18.3406 32.8954 18.1156 32.9676 17.9823C33.0398 17.849 33.1508 17.6019 33.2147 17.4353C33.2785 17.2687 33.359 16.9993 33.3951 16.8383C33.4312 16.6772 33.4728 16.4162 33.4895 16.2551C33.5089 16.0496 33.5089 15.8775 33.4895 15.672C33.4728 15.5109 33.4312 15.2499 33.3951 15.0888C33.359 14.9278 33.2841 14.6779 33.2258 14.5335C33.1703 14.3891 33.0675 14.1697 33.0037 14.0475C32.9371 13.9253 32.8038 13.7143 32.7067 13.5782C32.6123 13.4422 32.4124 13.2089 32.2653 13.0645C32.121 12.9173 31.885 12.7174 31.7462 12.6174C31.6046 12.5175 31.3742 12.3786 31.2327 12.3036C31.0939 12.2314 30.8968 12.1426 30.7969 12.1037C30.6969 12.0676 30.4971 12.0037 30.3527 11.9676C30.2084 11.9288 29.9891 11.8843 29.8669 11.8704C29.7448 11.8538 29.5505 11.8371 29.4367 11.8316C29.3228 11.8288 29.1035 11.8343 28.9509 11.8427C28.7982 11.8538 28.5678 11.8843 28.4373 11.9093Z" fill="#6FDA44"/>
<path id="Vector_3" fill-rule="evenodd" clip-rule="evenodd" d="M68.7576 7.41359C69.0462 7.41914 69.4349 7.44136 69.6181 7.46635C69.8013 7.48856 70.0511 7.52744 70.1733 7.55243C70.2954 7.57465 70.5619 7.63852 70.7645 7.69128C70.9644 7.74404 71.2725 7.83845 71.4419 7.89954C71.614 7.96341 71.8805 8.07171 72.0331 8.13835C72.1858 8.20778 72.4551 8.34107 72.63 8.43826C72.8048 8.53545 73.0741 8.69928 73.2268 8.79925C73.3794 8.90199 73.6348 9.08804 73.7958 9.213C73.9568 9.33519 74.2872 9.63787 74.5315 9.88223C74.7757 10.1266 75.0783 10.457 75.2004 10.6181C75.3254 10.7792 75.5113 11.0346 75.6141 11.1874C75.714 11.3401 75.8778 11.6094 75.9749 11.7844C76.0721 11.9593 76.2164 12.2481 76.2942 12.4231C76.3719 12.598 76.4968 12.9174 76.569 13.1312C76.6439 13.345 76.7439 13.6754 76.791 13.867C76.8382 14.0586 76.8993 14.3697 76.9298 14.5613C76.9604 14.7529 76.9992 15.0583 77.0159 15.2416C77.0298 15.4249 77.0437 15.7303 77.0437 15.9219C77.0437 16.1135 77.0298 16.4301 77.0159 16.63C76.9992 16.83 76.9604 17.1465 76.9298 17.3381C76.8993 17.5297 76.8355 17.8408 76.7883 18.0324C76.7411 18.224 76.6411 18.56 76.5634 18.7821C76.4885 19.0043 76.3552 19.3403 76.2692 19.5319C76.1831 19.7235 76.0304 20.0178 75.9361 20.1844C75.8389 20.351 75.6807 20.6093 75.5835 20.7537C75.4864 20.8981 75.3004 21.1563 75.1671 21.323C75.0339 21.4896 74.748 21.8034 74.5342 22.0172C74.3177 22.231 74.0124 22.5115 73.8514 22.642C73.6903 22.7697 73.3906 22.9863 73.1851 23.1196C72.9797 23.2557 72.63 23.4584 72.4079 23.5722C72.1858 23.6833 71.8805 23.8249 71.7278 23.886C71.5751 23.9471 71.2892 24.0471 71.0893 24.1109C70.8895 24.1748 70.5536 24.2637 70.3398 24.3053C70.1261 24.3497 69.8457 24.3997 69.7152 24.4192C69.5848 24.4358 69.3294 24.4608 69.1462 24.4719C68.963 24.483 68.6326 24.4886 68.4106 24.483C68.1885 24.4775 67.8471 24.4553 67.6472 24.4331C67.4473 24.4081 67.1309 24.3581 66.9393 24.3192C66.7478 24.2803 66.4785 24.2192 66.3425 24.1804C66.2065 24.1415 65.9372 24.0526 65.7457 23.9832C65.5541 23.9138 65.2294 23.7777 65.0239 23.6805C64.8185 23.5805 64.4882 23.4028 64.2911 23.2862C64.094 23.1696 63.7942 22.9669 63.6221 22.8363C63.4472 22.7058 63.178 22.4892 63.0225 22.3504C62.8671 22.2116 62.6033 21.9505 62.434 21.7673C62.2675 21.584 62.026 21.2952 61.901 21.1286C61.7733 20.962 61.5818 20.6787 61.4708 20.5038C61.3625 20.3288 61.1932 20.0289 61.0988 19.8373C61.0016 19.6457 60.8517 19.3153 60.7685 19.1015C60.6824 18.8876 60.5714 18.5572 60.5159 18.3656C60.4603 18.174 60.3909 17.8991 60.3604 17.7547C60.3327 17.6103 60.2882 17.3659 60.266 17.2132C60.2438 17.0604 60.2105 16.7411 60.1911 16.5051C60.1716 16.2496 60.1661 15.8997 60.1772 15.6442C60.1883 15.4082 60.2161 15.0639 60.2383 14.8806C60.2605 14.6973 60.3104 14.3974 60.3465 14.2142C60.3854 14.0309 60.452 13.7476 60.4992 13.581C60.5436 13.4172 60.6408 13.1256 60.713 12.9285C60.7851 12.7341 60.9517 12.3564 61.0849 12.0898C61.2182 11.8233 61.4402 11.4345 61.5763 11.229C61.7123 11.0235 61.9233 10.7292 62.0454 10.5764C62.1675 10.4237 62.3785 10.1821 62.5145 10.0377C62.6505 9.89334 62.8809 9.66841 63.0253 9.54067C63.1696 9.41016 63.4333 9.19912 63.6082 9.06583C63.7831 8.93532 64.0885 8.72983 64.2883 8.61042C64.4854 8.48824 64.7991 8.31885 64.9823 8.23277C65.1655 8.14391 65.4459 8.02172 65.6069 7.95786C65.7679 7.89677 66.0483 7.79957 66.2315 7.74681C66.4147 7.69128 66.7145 7.6163 66.8977 7.57742C67.0809 7.54133 67.3918 7.49134 67.5917 7.46635C67.7915 7.44413 68.0164 7.41914 68.0913 7.41359C68.1691 7.40804 68.4689 7.40804 68.7576 7.41359ZM67.6472 11.1985C67.4945 11.229 67.2336 11.2984 67.0642 11.354C66.8949 11.4067 66.609 11.5261 66.4258 11.615C66.2426 11.7066 65.9983 11.8399 65.8845 11.9149C65.7707 11.9899 65.5625 12.1454 65.4265 12.262C65.2904 12.3759 65.0961 12.5564 64.999 12.6619C64.899 12.7674 64.7353 12.9646 64.6353 13.1034C64.5326 13.2422 64.4049 13.4283 64.3494 13.5199C64.2967 13.6116 64.1939 13.806 64.1273 13.9504C64.0579 14.0947 63.9663 14.3252 63.9191 14.4641C63.8719 14.6029 63.8081 14.8251 63.7776 14.9639C63.747 15.1028 63.7082 15.3388 63.6887 15.4915C63.6693 15.6665 63.661 15.9303 63.6721 16.1996C63.6804 16.4357 63.7082 16.7494 63.7331 16.8938C63.7609 17.0382 63.822 17.2993 63.8747 17.4686C63.9275 17.6408 64.0191 17.8991 64.0801 18.0379C64.1412 18.1795 64.2495 18.3961 64.3189 18.5183C64.391 18.6405 64.5187 18.8404 64.6048 18.9626C64.6908 19.0848 64.9101 19.3347 65.0933 19.5208C65.2766 19.7068 65.5264 19.9317 65.6485 20.0206C65.7707 20.1095 65.9844 20.2483 66.1204 20.3288C66.2565 20.4121 66.5007 20.5315 66.6617 20.601C66.8227 20.6676 67.0587 20.7537 67.1892 20.7898C67.3196 20.8287 67.5195 20.8787 67.6333 20.9009C67.7471 20.9259 67.972 20.9592 68.133 20.9758C68.294 20.9897 68.5216 21.0036 68.641 21.0036C68.7575 21.0036 68.9963 20.9842 69.1656 20.962C69.3377 20.9397 69.6042 20.8898 69.7569 20.8509C69.9096 20.8092 70.14 20.737 70.2704 20.687C70.4009 20.6371 70.6119 20.5426 70.7423 20.476C70.8728 20.4121 71.0838 20.29 71.2142 20.2039C71.3447 20.1206 71.5446 19.9762 71.6584 19.8818C71.7722 19.7901 71.9554 19.6263 72.0637 19.518C72.1719 19.4125 72.3246 19.2431 72.4079 19.1431C72.4884 19.0431 72.6438 18.8321 72.7493 18.671C72.8548 18.51 73.0019 18.2545 73.0741 18.1018C73.149 17.949 73.2545 17.6936 73.3073 17.5325C73.36 17.3715 73.4294 17.116 73.4627 16.9633C73.5016 16.7772 73.5266 16.5328 73.5377 16.2274C73.5488 15.9386 73.5405 15.6665 73.521 15.4915C73.5016 15.3388 73.4627 15.1083 73.4322 14.9778C73.4017 14.8473 73.3406 14.6224 73.2934 14.478C73.249 14.3336 73.1241 14.0392 73.0158 13.8254C72.9103 13.6116 72.7382 13.32 72.6355 13.1756C72.5328 13.0312 72.3302 12.7868 72.183 12.6341C72.0359 12.4786 71.7944 12.2592 71.6417 12.1426C71.4918 12.026 71.2725 11.876 71.1587 11.8066C71.0449 11.7372 70.8867 11.6511 70.8117 11.6122C70.734 11.5733 70.5591 11.4984 70.4231 11.4428C70.2871 11.3901 70.0539 11.3123 69.9096 11.2734C69.7652 11.2346 69.5265 11.1846 69.3821 11.1596C69.2378 11.1374 68.963 11.1124 68.7714 11.1068C68.5799 11.1013 68.3106 11.1068 68.1746 11.1207C68.0386 11.1346 67.7999 11.1679 67.6472 11.1985ZM88.8135 7.84123V9.02695C88.8163 9.6823 88.8219 10.4876 88.8413 11.4234H88.0973C87.6893 11.4234 87.2618 11.4317 87.148 11.4401C87.0342 11.4484 86.8149 11.4734 86.6622 11.4956C86.5095 11.5206 86.2486 11.5845 86.0793 11.6372C85.9099 11.69 85.6545 11.7927 85.5102 11.8649C85.3658 11.9343 85.141 12.0649 85.0105 12.1509C84.8801 12.237 84.6746 12.3925 84.5553 12.498C84.4331 12.6008 84.2555 12.7813 84.1555 12.8951C84.0584 13.009 83.9002 13.2228 83.803 13.3672C83.7058 13.5116 83.5643 13.7615 83.4865 13.9226C83.4116 14.0836 83.3061 14.3586 83.2534 14.5335C83.2006 14.7084 83.134 14.9833 83.109 15.1444C83.0674 15.4054 83.0618 15.6998 83.0646 17.9352C83.0646 19.3097 83.0757 21.2369 83.109 24.0026L81.5545 24.0054C80.6995 24.0054 79.8668 24.0082 79.4087 24.0165L79.3976 23.8638C79.3921 23.7805 79.3837 22.4976 79.381 21.0175C79.3782 19.5374 79.3699 17.8491 79.3615 17.2687C79.3532 16.6883 79.3421 14.3363 79.3199 7.869H83.0119L83.0146 8.70761C83.0146 9.17135 83.023 9.72395 83.0313 9.93777C83.0368 10.1516 83.0452 10.3293 83.048 10.3321C83.0507 10.3349 83.109 10.2599 83.1784 10.1655C83.2478 10.0711 83.4532 9.84058 83.6365 9.65175C83.8197 9.46292 84.075 9.22133 84.2055 9.11859C84.336 9.01585 84.547 8.86034 84.6774 8.77426C84.8079 8.68817 85.0577 8.54378 85.2326 8.45492C85.4075 8.36606 85.6767 8.24387 85.8294 8.18834C85.9821 8.13002 86.243 8.04949 86.4124 8.00784C86.5817 7.96341 86.8537 7.91065 87.0231 7.88843C87.2229 7.86067 87.5866 7.84678 88.8135 7.84123ZM56.2354 7.98007H58.0758C59.5304 7.98007 59.9163 7.9884 59.9163 8.01339C59.9163 8.03283 59.0391 11.1485 57.9703 14.9361C56.8988 18.7238 55.8801 22.3337 55.7052 22.9613C55.5275 23.5861 55.3749 24.1082 55.3665 24.1165C55.3582 24.1276 54.5476 24.1387 51.7828 24.1554L51.744 24.0165C51.7218 23.9388 51.3887 22.6531 51.0056 21.1563C50.6225 19.6596 50.2644 18.2739 50.2144 18.074C50.1617 17.8741 49.8508 16.6634 49.5205 15.3804C49.1901 14.0975 48.9153 13.0229 48.907 12.9923C48.8987 12.9618 48.8876 12.9423 48.882 12.9507C48.8765 12.959 48.2574 15.4443 47.5079 18.4767C46.7584 21.509 46.1339 24.036 46.0922 24.197L42.5002 24.1831L42.3003 23.5167C42.1893 23.1501 41.8506 22.0116 41.5453 20.9897C41.2371 19.9678 40.657 18.024 40.2517 16.6717C39.8492 15.3193 39.269 13.3755 38.9609 12.3536C38.6555 11.329 38.2447 9.95443 38.0476 9.29909C37.8505 8.64097 37.6895 8.10225 37.6923 8.0967C37.6951 8.09392 38.5001 8.08282 41.276 8.05505L42.8666 13.5366C43.7438 16.5523 44.4683 19.0265 44.4766 19.0376C44.4877 19.0487 44.9624 17.0549 45.5343 14.6085C46.1033 12.162 46.6391 9.87112 46.7196 9.52124C46.8028 9.16857 46.9139 8.69095 47.0638 8.03561H47.9576C48.4517 8.03283 49.2373 8.0245 49.7092 8.01339C50.2727 7.99951 50.5614 8.00229 50.5614 8.02172C50.5614 8.03561 50.8168 9.06028 51.1305 10.2988C51.4414 11.5345 51.8911 13.3089 52.1243 14.2419C52.3602 15.1722 52.7239 16.6161 52.9348 17.4492C53.1458 18.2823 53.3235 18.9709 53.3346 18.982C53.3429 18.9932 53.429 18.7071 53.5261 18.3434C53.6205 17.9824 54.1091 16.1163 54.6115 14.2003C55.1112 12.2842 55.683 10.0988 55.8801 9.34629L56.2354 7.98007Z" fill="white"/>
</g>
</g>
</svg>
