<svg width="112" height="32" viewBox="0 0 112 32" fill="none" xmlns="http://www.w3.org/2000/svg">
<g id="image 5_layerstyle">
<g id="Group">
<path id="Vector" d="M19.0542 15.352C19.3328 9.37073 19.6114 4.36637 19.6512 4.24674V4.2268C19.7109 4.10718 19.8104 3.98755 19.89 3.98755C19.9894 3.98755 20.4471 4.3863 20.9446 4.88475C21.7803 5.74207 21.8997 5.78194 22.9344 5.78194C23.5313 5.78194 24.1482 5.86169 24.2676 5.94144C24.4267 6.02119 24.8048 7.95515 25.2227 10.8661C25.6206 13.4978 26.337 18.3028 26.8145 21.5327C27.2921 24.7626 27.7298 27.8131 27.8094 29.1888L23.6308 30.1059C21.3226 30.6243 19.1935 31.1028 18.2583 31.3421L18.3976 28.7701C18.4772 27.3745 18.7757 21.3333 19.0542 15.352Z" fill="#5F8D3D"/>
<path id="Vector_2" d="M99.5425 14.3153C99.4231 13.777 99.3435 13.1789 99.3435 12.9595C99.3634 12.5608 99.4629 12.5409 103.224 12.6605L103.622 16.7477C103.841 19.0007 104.099 20.8349 104.199 20.8349C104.298 20.8349 104.776 19.7982 105.253 18.5421C105.711 17.286 106.407 15.4119 107.502 12.5608H109.492C111.322 12.5608 111.462 12.5807 111.302 12.8997C111.203 13.0991 110.248 15.1328 109.193 17.4455C108.119 19.7583 106.845 22.43 106.368 23.4268C105.87 24.4237 104.975 25.9589 104.398 26.8761C103.801 27.7733 102.806 29.0293 102.169 29.6673C101.512 30.2854 100.518 31.0231 99.9206 31.3022C99.3236 31.5814 98.8063 31.8605 98.7466 31.9402C98.6869 32.02 98.5476 32.02 98.4282 31.9402C98.3088 31.8605 98.0104 31.2225 97.7716 30.5047C97.5527 29.787 97.3537 29.0891 97.3537 28.9695C97.3537 28.83 97.7318 28.5309 98.1895 28.3116C98.667 28.1122 99.4032 27.6337 99.841 27.2549C100.279 26.896 100.836 26.258 101.532 25.1215L100.637 20.177C100.139 17.4655 99.642 14.8337 99.5425 14.3153Z" fill="white"/>
<path id="Vector_3" fill-rule="evenodd" clip-rule="evenodd" d="M13.1447 0C13.7417 0 14.1396 0.139564 14.5774 0.498442C14.9156 0.77757 15.3136 0.996885 15.4728 0.996885C15.632 0.996885 16.0101 1.11651 16.3284 1.27601C16.6269 1.41558 17.0846 1.79439 17.3631 2.1134C17.6417 2.4324 17.98 2.97072 18.1193 3.28972C18.3381 3.8081 18.4575 3.88785 19.0545 3.82804C19.7111 3.78816 19.7509 3.8081 19.6514 4.32648C19.5917 4.64548 19.333 9.68972 19.0545 15.5514C18.7759 21.4131 18.4774 27.3346 18.3978 28.6903C18.3182 30.0262 18.2187 31.1826 18.1591 31.2025C18.0994 31.2424 15.6917 30.8436 12.7865 30.3252C9.88141 29.7869 5.96147 29.0492 4.07114 28.6903C0.728244 28.0324 0.648651 27.9925 0.648651 27.514C0.648651 27.2349 0.748142 26.1981 0.847633 25.2212C0.967022 24.2243 1.46448 20.3364 1.96193 16.5483C2.45939 12.7601 2.89715 9.47041 2.95684 9.21122C2.99664 8.97196 3.23542 8.69283 3.47419 8.59315C3.73287 8.49346 4.5487 8.21433 6.7176 7.59626L7.07576 6.34019C7.27475 5.64237 7.7324 4.54579 8.07067 3.90779C8.42884 3.24984 9.02579 2.35265 9.42375 1.91402C9.80182 1.45545 10.6176 0.857321 11.2146 0.538318C11.8911 0.199377 12.6075 0 13.1248 0L13.1447 0ZM10.4386 2.9109C10.0605 3.3296 9.44365 4.34642 9.08548 5.12399C8.72731 5.9215 8.42884 6.65919 8.42884 6.77882C8.42884 6.8785 8.44874 6.97819 8.46864 6.97819C8.50843 6.97819 8.9263 6.83863 9.42375 6.67913C10.2595 6.4 10.3391 6.32025 10.6972 5.24361C10.8962 4.60561 11.2942 3.68847 11.5927 3.20997C11.8712 2.73146 12.3687 2.1134 12.707 1.85421C13.0651 1.59502 13.1845 1.39564 13.0054 1.39564C12.8462 1.39564 12.3488 1.57508 11.911 1.77445C11.4733 1.97383 10.8166 2.47227 10.4386 2.9109ZM16.0697 4.54579C16.0697 4.56573 16.3284 4.54579 16.6269 4.48598L17.184 4.38629C16.607 3.22991 16.3085 2.77134 16.1692 2.61184C15.9305 2.37259 15.8907 2.49221 15.9703 3.40935C16.01 4.00748 16.0498 4.50592 16.0697 4.54579ZM12.4284 4.72523C12.1896 5.20374 12.0304 5.66231 12.0503 5.74206C12.0901 5.84174 12.6672 5.74206 13.3437 5.54268C14.5575 5.20374 14.5973 5.16386 14.5973 4.52586C14.5973 4.18692 14.5575 3.58879 14.5177 3.22991C14.458 2.89097 14.3585 2.5919 14.259 2.5919C14.1595 2.5919 13.8014 2.89097 13.4631 3.22991C13.1248 3.58879 12.6672 4.26667 12.4284 4.72523Z" fill="#93BD46"/>
<path id="Vector_4" d="M8.94615 11.8231C9.4834 11.5241 10.2992 11.1652 10.7967 11.0256C11.2941 10.906 12.0901 10.7864 12.5875 10.7864C13.085 10.7664 13.8212 10.8661 14.2192 10.9658C14.637 11.0854 14.9753 11.225 14.9753 11.3247C14.9753 11.4044 14.7166 12.202 14.4182 13.1191C14.0003 14.3951 13.8212 14.734 13.5824 14.6344C13.4232 14.5546 12.8462 14.415 12.289 14.3154C11.6125 14.1758 11.1151 14.1957 10.7569 14.3353C10.4385 14.4549 10.0405 14.7939 9.86147 15.073C9.54309 15.5515 9.5232 15.6512 9.80177 16.1097C9.96096 16.3889 10.6375 17.0269 11.2941 17.5453C11.9508 18.0636 12.7467 18.8611 13.085 19.3197C13.6222 20.0973 13.6819 20.3166 13.6819 21.792C13.6819 23.1677 13.6023 23.5664 13.1845 24.3241C12.9059 24.8026 12.3288 25.4605 11.8911 25.7795C11.2543 26.2381 10.8166 26.3777 9.70228 26.4574C8.58798 26.5372 8.09053 26.4773 7.21501 26.1384C6.61806 25.9191 5.82213 25.4805 4.82722 24.6231L5.1456 23.5266C5.32468 22.9284 5.52366 22.3702 5.60325 22.2904C5.66295 22.2107 6.25989 22.4101 6.91653 22.749C7.57317 23.068 8.28951 23.3272 8.50839 23.3272C8.72727 23.3272 9.10533 23.1876 9.36401 23.0281C9.66248 22.8088 9.80177 22.5297 9.80177 22.0911C9.78187 21.5527 9.5431 21.1939 8.4089 20.0973C7.63287 19.3397 6.87674 18.4225 6.71755 18.0437C6.55837 17.6649 6.41908 16.9272 6.41908 16.4088C6.41908 15.8705 6.51857 15.1328 6.63796 14.754C6.77725 14.3752 7.13541 13.6773 7.45379 13.2188C7.75226 12.7403 8.4288 12.1222 8.94615 11.8231Z" fill="#EFEFEF"/>
<path id="Vector_5" fill-rule="evenodd" clip-rule="evenodd" d="M98.3887 6.43988C99.2244 6.45982 99.9606 6.51963 100.04 6.57944C100.12 6.63926 100.04 7.33708 99.5428 9.5701L98.5677 9.53022C97.732 9.47041 97.4932 9.55016 97.0157 10.0087C96.7172 10.2879 96.3391 10.9059 96.1999 11.3446C96.0805 11.8031 96.0009 12.2617 96.0606 12.3614C96.1203 12.481 96.6973 12.5608 97.354 12.5608C98.4882 12.5608 98.5479 12.5807 98.4484 13.0193C98.3887 13.2586 98.2693 13.8567 98.0504 15.2523L95.4636 15.372L93.434 25.8193L91.6233 25.8791C89.9916 25.919 89.7927 25.8791 89.7927 25.5801C89.7927 25.3807 90.1906 23.0679 90.6881 20.4361C91.1855 17.8044 91.5835 15.5913 91.5835 15.5115C91.5835 15.4118 91.2253 15.352 90.7876 15.352C90.2901 15.352 89.9916 15.2523 89.9916 15.1128C89.9916 14.9732 90.0911 14.3352 90.4891 12.5608H92.1804L92.3993 11.524C92.5187 10.9458 92.8371 10.0287 93.0759 9.47041C93.3345 8.91215 93.9116 8.13458 94.409 7.71589C94.8667 7.31714 95.6228 6.83863 96.0606 6.67913C96.558 6.49969 97.4335 6.4 98.3887 6.43988ZM46.0763 6.57944H47.9468C48.9616 6.57944 49.7973 6.61932 49.7973 6.67913C49.7973 6.73895 49.5187 8.21433 49.2003 9.96885C48.8621 11.7234 48.6034 13.3583 48.6034 13.6174C48.6034 14.0561 48.6034 14.0561 49.1407 13.5377C49.459 13.2386 49.9565 12.8598 50.2947 12.7003C50.6131 12.5408 51.2499 12.3414 51.6876 12.2617C52.1254 12.1819 52.782 12.1819 53.1203 12.2417C53.4785 12.3016 54.0953 12.6604 54.4734 13.0193C55.0106 13.4978 55.2295 13.9165 55.3887 14.6542C55.5081 15.3122 55.5081 16.1296 55.3887 17.0467C55.2693 17.8243 54.9509 19.6586 54.6723 21.134C54.3938 22.6094 54.0754 24.3041 53.7769 25.919H51.8866C50.0361 25.919 49.9963 25.919 50.0759 25.4804C50.1356 25.2212 50.4937 23.2673 50.8917 21.134C51.2698 19.0006 51.5881 17.0268 51.5881 16.7477C51.5881 16.4685 51.4488 16.0498 51.2897 15.8106C51.0907 15.5049 50.7922 15.352 50.3942 15.352C50.0162 15.352 49.5585 15.5713 49.1407 15.9103C48.8024 16.2293 48.285 16.967 48.0264 17.5651C47.7677 18.1632 47.2503 20.2567 46.8922 22.2305C46.5141 24.2044 46.2156 25.8393 46.2156 25.8791C46.2156 25.8991 45.36 25.919 44.3253 25.919C43.2906 25.919 42.435 25.8791 42.435 25.8193C42.435 25.7595 42.9324 23.1477 43.5294 19.9975C44.1263 16.8274 44.962 12.5209 45.36 10.4274L46.0763 6.57944ZM88.1809 6.85857C88.5988 6.91838 89.0564 7.15764 89.335 7.4567C89.5937 7.73583 89.7728 8.23427 89.7728 8.57321C89.7728 8.89222 89.6534 9.43053 89.4743 9.76947C89.2952 10.1084 88.8773 10.4872 88.4396 10.6667C88.0217 10.8461 87.4447 10.9259 87.1462 10.866C86.8477 10.8062 86.41 10.5072 86.1911 10.2081C85.9722 9.90904 85.7931 9.35078 85.7931 8.97197C85.7931 8.57321 85.9722 8.01496 86.1911 7.69595C86.4299 7.39689 86.8079 7.05795 87.0467 6.95826C87.2855 6.85857 87.8028 6.8187 88.1809 6.85857ZM39.8283 12.2417C40.5446 12.3016 41.4202 12.4411 41.7783 12.5408C42.1365 12.6604 42.4151 12.8199 42.4151 12.8997C42.4151 12.9794 42.2559 13.5975 42.0569 14.2555C41.8181 15.0131 41.5992 15.4318 41.4003 15.4118C41.261 15.3919 40.6839 15.2922 40.1268 15.1925C39.5298 15.0729 38.8732 15.053 38.4951 15.1726C38.0773 15.2723 37.7987 15.4916 37.7191 15.7907C37.6594 16.0299 37.6395 16.4087 37.6793 16.628C37.7191 16.8673 38.3359 17.4056 39.1319 17.9439C39.9079 18.4424 40.7635 19.1601 41.0222 19.5389C41.4401 20.1171 41.5196 20.4561 41.5196 21.6523C41.5196 22.9483 41.46 23.1676 40.8829 23.9452C40.5048 24.4835 39.8283 25.0417 39.112 25.4006C38.1768 25.8991 37.6793 26.0187 36.366 26.0785C35.2119 26.1184 34.4359 26.0386 33.5604 25.7595C32.9037 25.5601 32.3466 25.2611 32.3068 25.1016C32.2869 24.9421 32.4461 24.3041 33.0629 22.5296L34.2568 22.9284C34.9135 23.1477 35.7691 23.3271 36.167 23.3271C36.6446 23.3271 37.0227 23.1676 37.3609 22.8287C37.6196 22.5495 37.8385 22.2106 37.8385 22.071C37.8385 21.9315 37.7191 21.6125 37.54 21.3732C37.3808 21.134 36.7043 20.5757 36.0476 20.1371C35.391 19.6984 34.6349 19.0006 34.3563 18.5819C33.9583 17.9838 33.8588 17.5851 33.8588 16.648C33.8787 15.7508 33.9981 15.2324 34.3364 14.6542C34.5951 14.2156 35.1721 13.5975 35.6298 13.2984C36.0874 12.9994 36.9232 12.6206 37.5002 12.4611C38.1569 12.2617 39.0125 12.1819 39.8283 12.2417ZM63.8056 12.162C64.2434 12.162 65.0791 12.2816 65.6562 12.4411C66.3924 12.6604 66.9495 13.0193 67.5863 13.6573C68.2628 14.3153 68.5812 14.8336 68.82 15.691C69.0388 16.4885 69.0985 17.266 69.0388 18.243C68.9791 19.0006 68.7404 20.177 68.5016 20.8349C68.2827 21.4928 67.7455 22.5097 67.3475 23.0879C66.9296 23.686 66.2332 24.4237 65.7954 24.7427C65.3577 25.0617 64.522 25.5003 63.9051 25.7396C63.0694 26.0586 62.4724 26.1383 61.3183 26.0785C60.0648 26.0187 59.6469 25.8991 58.8311 25.4206C58.2341 25.0417 57.6372 24.4436 57.2591 23.8256C56.7219 22.9682 56.6423 22.6293 56.5826 21.134C56.5229 19.9178 56.6025 19.0804 56.8413 18.243C57.0402 17.5851 57.3586 16.7078 57.5576 16.2891C57.7765 15.8704 58.3137 15.1327 58.7913 14.6143C59.2489 14.1159 59.9454 13.4978 60.3234 13.2386C60.7214 12.9994 61.4775 12.6604 62.0148 12.481C62.5719 12.3215 63.3679 12.1819 63.8056 12.162ZM61.4775 16.5882C61.1791 17.0467 60.801 17.9838 60.6418 18.6417C60.4627 19.2997 60.3234 20.1969 60.3234 20.6355C60.3234 21.0741 60.4229 21.7122 60.5224 22.071C60.6418 22.4299 60.9005 22.8087 61.1194 22.9284C61.3382 23.028 61.8357 23.1277 62.2337 23.1277C62.7112 23.1277 63.0893 22.9682 63.4276 22.6293C63.6862 22.3502 64.124 21.6523 64.4026 21.0741C64.6612 20.496 64.9796 19.4193 65.099 18.6816C65.2383 17.7645 65.2383 17.0866 65.099 16.5483C64.9995 16.0897 64.701 15.6112 64.4623 15.4318C64.2036 15.2723 63.7857 15.1527 63.5071 15.1527C63.2485 15.1527 62.7908 15.2922 62.5122 15.4517C62.2337 15.6112 61.776 16.1296 61.4775 16.5882ZM78.5303 12.162C78.8685 12.162 79.4456 12.2417 79.8237 12.3414C80.2216 12.4411 80.8385 12.8598 81.2364 13.2785C81.6344 13.6972 82.0722 14.415 82.2313 14.8536C82.3706 15.2922 82.49 16.3689 82.49 17.2461C82.49 18.2829 82.3507 19.3196 82.0722 20.2368C81.8334 20.9944 81.2563 22.2106 80.7788 22.9084C80.3211 23.6062 79.5252 24.4835 79.0277 24.8424C78.5502 25.2013 77.6946 25.6399 77.1374 25.8393C76.4609 26.0586 75.7445 26.1383 74.8491 26.0586C74.1527 26.0187 73.4363 25.919 73.2573 25.8393C73.0185 25.7196 72.8792 26.1782 71.944 31.2025L70.2725 31.2424C69.3373 31.2822 68.4817 31.2623 68.3424 31.2025C68.1434 31.1227 68.1434 30.9034 68.2827 30.3452C68.3822 29.9265 69.0388 26.4972 69.7552 22.729C70.4715 18.9408 71.1679 15.0729 71.5858 12.4611L74.9486 12.3215L74.8093 13.1389C74.7098 13.6374 74.7297 13.9564 74.8491 13.9564C74.9685 13.9564 75.4063 13.6573 75.844 13.2984C76.2818 12.9396 76.9185 12.5408 77.2767 12.4212C77.6349 12.2816 78.2119 12.1819 78.5303 12.162ZM75.6848 16.01C75.4262 16.2492 75.0282 16.8075 74.8093 17.2461C74.5904 17.6847 74.2323 18.9408 74.0333 20.0374C73.8343 21.134 73.6552 22.2106 73.6552 22.4299C73.6552 22.6825 73.8675 22.9084 74.292 23.1078C74.8292 23.3271 75.1078 23.3271 75.7047 23.1477C76.2022 22.9882 76.6399 22.6492 77.0578 22.071C77.3961 21.6125 77.794 20.9146 77.9532 20.5358C78.1124 20.1371 78.3512 19.3396 78.4706 18.7414C78.59 18.1234 78.6298 17.3059 78.5701 16.8872C78.4905 16.4685 78.2517 15.9701 78.0328 15.7508C77.8139 15.5315 77.4359 15.352 77.1971 15.352C76.9384 15.372 76.62 15.4318 76.441 15.4916C76.2818 15.5514 75.9435 15.7907 75.6848 16.01ZM87.1064 12.5608C88.9569 12.5608 88.9768 12.5608 88.8773 12.9994C88.8375 13.2386 88.3799 15.5115 87.9023 18.0436C87.4248 20.5558 86.9273 23.2075 86.788 23.9252C86.6686 24.6231 86.5293 25.3608 86.4896 25.5601C86.41 25.8592 86.1314 25.919 84.4997 25.919C83.465 25.919 82.6094 25.8791 82.6094 25.8592C82.6094 25.8393 83.1069 23.3072 83.6839 20.2368C84.2808 17.1664 84.8181 14.2355 84.8977 13.757C84.9773 13.2586 85.0967 12.7801 85.1365 12.7003C85.1763 12.6206 86.0717 12.5608 87.1064 12.5608Z" fill="white"/>
</g>
</g>
</svg>
